<svg width="43" height="50" viewBox="0 0 43 50" fill="none" xmlns="http://www.w3.org/2000/svg">
<g clip-path="url(#clip0)">
<path d="M35.1899 48C32.473 50.63 29.4753 50.22 26.618 48.98C23.5803 47.715 20.8032 47.635 17.595 48.98C13.5998 50.7 11.4793 50.2 9.07319 48C-4.51151 34.05 -2.50639 12.8 12.9331 12C16.6776 12.2 19.2993 14.065 21.5049 14.22C24.7833 13.555 27.9213 11.65 31.4303 11.9C35.6461 12.24 38.7991 13.9 40.9045 16.885C32.2324 22.085 34.2876 33.485 42.253 36.685C40.6589 40.86 38.6137 44.985 35.1849 48.035L35.1899 48ZM21.2042 11.85C20.7981 5.65004 25.836 0.550048 31.6308 0.0500488C32.4279 7.20004 25.1142 12.55 21.2042 11.85Z" fill="black"/>
</g>
<defs>
<clipPath id="clip0">
<rect width="42.2078" height="50" fill="white"/>
</clipPath>
</defs>
</svg>
